<?xml version="1.0" standalone="no"?>
<!DOCTYPE svg PUBLIC "-//W3C//DTD SVG 20010904//EN"
 "http://www.w3.org/TR/2001/REC-SVG-20010904/DTD/svg10.dtd">
<svg version="1.0" xmlns="http://www.w3.org/2000/svg"
 width="840.000000pt" height="700.000000pt" viewBox="0 0 840.000000 700.000000"
 preserveAspectRatio="xMidYMid meet">

<g transform="translate(0.000000,700.000000) scale(0.100000,-0.100000)"
fill="#000000" stroke="none">
<path d="M3970 5550 c-341 -64 -626 -245 -831 -530 -331 -460 -314 -1115 40
-1554 17 -21 67 -78 110 -125 342 -374 602 -835 780 -1386 49 -149 121 -424
121 -460 0 -13 5 -27 10 -30 6 -3 10 4 10 18 0 39 86 362 133 502 147 432 325
783 554 1093 73 99 201 252 254 304 45 44 131 160 173 233 64 111 111 227 143
353 25 99 28 122 28 302 0 179 -3 204 -27 300 -135 524 -540 900 -1063 985
-120 20 -316 18 -435 -5z"/>
</g>
</svg>
