<?xml version="1.0" standalone="no"?>
<!DOCTYPE svg PUBLIC "-//W3C//DTD SVG 20010904//EN"
 "http://www.w3.org/TR/2001/REC-SVG-20010904/DTD/svg10.dtd">
<svg version="1.0" xmlns="http://www.w3.org/2000/svg"
 width="900.000000pt" height="587.000000pt" viewBox="0 0 900.000000 587.000000"
 preserveAspectRatio="xMidYMid meet">

<g transform="translate(0.000000,587.000000) scale(0.100000,-0.100000)"
fill="#000000" stroke="none">
<path d="M3090 5434 c-64 -23 -131 -69 -241 -165 -53 -46 -125 -108 -160 -137
-244 -207 -419 -503 -493 -832 -142 -638 93 -1378 692 -2174 367 -487 793
-919 1187 -1205 358 -259 664 -402 1023 -478 115 -24 147 -27 342 -27 184 0
229 3 315 22 145 32 244 66 380 132 148 72 240 136 398 276 261 231 308 292
315 410 11 169 -94 316 -433 608 -182 156 -288 232 -403 290 -187 94 -335 99
-492 15 -64 -34 -209 -156 -356 -300 -113 -111 -177 -148 -274 -156 -215 -20
-496 152 -833 509 -481 509 -720 928 -677 1190 18 114 70 187 203 284 144 106
312 259 356 325 60 90 76 146 76 269 -1 195 -68 341 -354 775 -109 164 -247
309 -336 350 -75 35 -170 43 -235 19z"/>
</g>
</svg>
